<svg data-v-fde0c5aa="" xmlns="http://www.w3.org/2000/svg" viewBox="0 0 300 300" class="iconLeftSlogan"><!----><defs data-v-fde0c5aa=""><!----></defs><rect data-v-fde0c5aa="" fill="#FEF2E5" x="0" y="0" width="300px" height="300px" class="logo-background-square"></rect><defs data-v-fde0c5aa=""><!----></defs><g data-v-fde0c5aa="" id="048b937c-1a2b-4a20-9a85-36fa052098c3" fill="#361C00" transform="matrix(2.8043665502211668,0,0,2.8043665502211668,115.09838113903575,118.027787303426)"><path d="M1.35 12.61L1.35 2.95L2.74 2.95L2.74 7.16L7.31 7.16L7.31 2.95L8.71 2.95L8.71 12.61L7.31 12.61L7.31 8.39L2.74 8.39L2.74 12.61L1.35 12.61ZM11.42 12.61L11.42 2.95L13.06 2.95L17.17 10.64L17.17 2.95L18.52 2.95L18.52 12.61L16.86 12.61L12.77 4.90L12.77 12.61L11.42 12.61ZM23.30 12.61L23.30 4.15L20.15 4.15L20.15 2.95L27.85 2.95L27.85 4.15L24.70 4.15L24.70 12.61L23.30 12.61ZM31.90 12.72L31.90 12.72Q30.84 12.72 30.10 12.24L30.10 12.24L30.10 12.24Q29.37 11.76 29.00 10.97L29.00 10.97L29.00 10.97Q28.64 10.18 28.64 9.22L28.64 9.22L28.64 9.22Q28.64 8.29 28.99 7.47L28.99 7.47L28.99 7.47Q29.34 6.66 30.05 6.16L30.05 6.16L30.05 6.16Q30.76 5.66 31.78 5.66L31.78 5.66L31.78 5.66Q32.86 5.66 33.54 6.16L33.54 6.16L33.54 6.16Q34.21 6.65 34.51 7.42L34.51 7.42L34.51 7.42Q34.80 8.19 34.80 9.04L34.80 9.04L34.80 9.04Q34.80 9.41 34.76 9.63L34.76 9.63L30.04 9.63L30.04 9.63Q30.08 10.48 30.55 11.01L30.55 11.01L30.55 11.01Q31.02 11.54 31.90 11.54L31.90 11.54L31.90 11.54Q32.45 11.54 32.88 11.37L32.88 11.37L32.88 11.37Q33.32 11.20 33.68 10.81L33.68 10.81L34.60 11.58L34.60 11.58Q34.04 12.17 33.38 12.44L33.38 12.44L33.38 12.44Q32.73 12.72 31.90 12.72L31.90 12.72ZM30.04 8.62L33.52 8.62L33.52 8.62Q33.47 7.79 33.03 7.27L33.03 7.27L33.03 7.27Q32.60 6.76 31.77 6.76L31.77 6.76L31.77 6.76Q30.98 6.76 30.55 7.28L30.55 7.28L30.55 7.28Q30.11 7.80 30.04 8.62L30.04 8.62ZM36.39 12.61L36.39 5.78L37.69 5.78L37.69 6.96L37.69 6.96Q37.93 6.34 38.47 5.99L38.47 5.99L38.47 5.99Q39.00 5.63 39.62 5.63L39.62 5.63L39.62 5.63Q39.96 5.63 40.27 5.74L40.27 5.74L40.27 5.74Q40.57 5.85 40.79 6.05L40.79 6.05L40.21 7.16L40.21 7.16Q39.87 6.91 39.42 6.91L39.42 6.91L39.42 6.91Q38.92 6.91 38.52 7.20L38.52 7.20L38.52 7.20Q38.13 7.49 37.91 8.05L37.91 8.05L37.91 8.05Q37.68 8.62 37.68 9.44L37.68 9.44L37.68 12.61L36.39 12.61ZM41.90 12.61L41.90 5.78L43.23 5.78L43.23 6.67L43.23 6.67Q43.50 6.19 43.98 5.91L43.98 5.91L43.98 5.91Q44.46 5.63 45.03 5.63L45.03 5.63L45.03 5.63Q45.72 5.63 46.23 5.96L46.23 5.96L46.23 5.96Q46.75 6.30 47.04 6.96L47.04 6.96L47.04 6.96Q47.39 6.31 47.96 5.97L47.96 5.97L47.96 5.97Q48.52 5.63 49.23 5.63L49.23 5.63L49.23 5.63Q50.05 5.63 50.60 6.02L50.60 6.02L50.60 6.02Q51.15 6.41 51.41 7.05L51.41 7.05L51.41 7.05Q51.67 7.70 51.67 8.48L51.67 8.48L51.67 12.61L50.33 12.61L50.33 8.63L50.33 8.63Q50.33 7.85 50.04 7.33L50.04 7.33L50.04 7.33Q49.75 6.82 49.03 6.82L49.03 6.82L49.03 6.82Q48.54 6.82 48.18 7.11L48.18 7.11L48.18 7.11Q47.82 7.39 47.63 7.85L47.63 7.85L47.63 7.85Q47.44 8.31 47.44 8.84L47.44 8.84L47.44 12.61L46.10 12.61L46.10 8.60L46.10 8.60Q46.10 7.82 45.82 7.32L45.82 7.32L45.82 7.32Q45.53 6.82 44.83 6.82L44.83 6.82L44.83 6.82Q44.34 6.82 43.98 7.12L43.98 7.12L43.98 7.12Q43.61 7.42 43.42 7.91L43.42 7.91L43.42 7.91Q43.23 8.40 43.23 8.96L43.23 8.96L43.23 12.61L41.90 12.61Z"></path></g><defs data-v-fde0c5aa=""><linearGradient data-v-fde0c5aa="" gradientTransform="rotate(25)" id="608776b2-9265-40fb-b247-dda8c818eecb" x1="0%" y1="0%" x2="100%" y2="0%"><stop data-v-fde0c5aa="" offset="0%" stop-color="#EB4C00" stop-opacity="1"></stop><stop data-v-fde0c5aa="" offset="100%" stop-color="#F2A900" stop-opacity="1"></stop></linearGradient></defs><g data-v-fde0c5aa="" id="cc636afb-5dff-499a-b39a-0d0f5aa67872" stroke="none" fill="url(#608776b2-9265-40fb-b247-dda8c818eecb)" transform="matrix(0.732039444404336,0,0,0.732039444404336,36.33980277797832,113.39802638352877)"><path d="M53.214 58.036h6.429v-6.429H40.357v6.429h6.429zM21.071 38.75H27.5v6.429h-6.429zM27.5 45.179h6.429v6.429H27.5z"></path><path d="M14.643 90.179h70.715c6.221 0 9.643-3.422 9.643-9.643V19.464c0-6.221-3.425-9.643-9.643-9.643H14.643C8.425 9.821 5 13.243 5 19.464v61.072c0 6.221 3.425 9.643 9.643 9.643zm38.571-70.715h32.144v6.429H53.214v-6.429zm-12.857 0h6.429v6.429h-6.429v-6.429zm-12.857 0h6.429v6.429H27.5v-6.429zm-12.857 0h6.429v6.429h-6.429v-6.429zm0 16.072c0-1.599 1.617-3.215 3.215-3.215h64.285c1.598 0 3.215 1.616 3.215 3.215v41.785c0 1.598-1.617 3.215-3.215 3.215H17.857c-1.598 0-3.215-1.617-3.215-3.215V35.536z"></path><path d="M21.071 51.607H27.5v6.429h-6.429z"></path></g><defs data-v-fde0c5aa=""><!----></defs><g data-v-fde0c5aa="" id="8c4baacc-7500-40ad-b0c8-6d0d18e42f7b" fill="#361C00" transform="matrix(0.35646986559193644,0,0,0.35646986559193644,118.48146510227653,162.9507445559515)"><path d="M7.57 2.21L7.57 6.33L2.18 6.33L2.18 2.21L1.13 2.21L1.13 11.48L2.18 11.48L2.18 7.35L7.57 7.35L7.57 11.48L8.62 11.48L8.62 2.21ZM22.05 2.21L20.73 2.21L16.80 11.48L17.96 11.48L19.10 8.79L23.69 8.79L24.82 11.48L25.98 11.48ZM19.50 7.83L21.39 3.30L23.28 7.83ZM37.95 10.57C35.70 10.57 34.44 8.93 34.44 6.85C34.44 4.76 35.70 3.12 37.95 3.12C39.48 3.12 40.49 3.85 40.96 4.98L42.07 4.98C41.48 3.29 39.97 2.10 37.87 2.10C35.08 2.10 33.39 4.21 33.39 6.85C33.39 9.48 35.08 11.59 37.87 11.59C39.97 11.59 41.48 10.40 42.07 8.71L40.96 8.71C40.49 9.84 39.48 10.57 37.95 10.57ZM58.32 2.21L56.84 2.21L51.69 7.04L51.69 2.21L50.64 2.21L50.64 11.48L51.69 11.48L51.69 8.44L53.61 6.65L57.23 11.48L58.55 11.48L54.38 5.94ZM73.43 3.22L73.43 2.21L66.61 2.21L66.61 11.48L73.43 11.48L73.43 10.47L67.66 10.47L67.66 7.35L72.81 7.35L72.81 6.33L67.66 6.33L67.66 3.22ZM83.17 7.92L86.39 7.92L88.63 11.48L89.88 11.48L87.44 7.74C88.48 7.50 89.68 6.90 89.68 5.11C89.68 3.35 88.47 2.21 86.56 2.21L82.12 2.21L82.12 11.48L83.17 11.48ZM83.17 3.21L86.44 3.21C87.75 3.21 88.63 3.93 88.63 5.11C88.63 6.55 87.37 6.93 86.38 6.93L83.17 6.93ZM115.42 2.21L115.42 10.01L109.69 2.21L108.47 2.21L108.47 11.48L109.52 11.48L109.52 3.65L115.25 11.48L116.47 11.48L116.47 2.21ZM132.55 3.22L132.55 2.21L125.73 2.21L125.73 11.48L132.55 11.48L132.55 10.47L126.78 10.47L126.78 7.35L131.94 7.35L131.94 6.33L126.78 6.33L126.78 3.22ZM146.82 3.70L149.32 11.48L150.51 11.48L153.40 2.21L152.29 2.21L149.91 10.00L147.42 2.21L146.22 2.21L143.72 10.00L141.34 2.21L140.24 2.21L143.12 11.48L144.31 11.48ZM162.27 4.65C162.27 4.03 162.64 3.08 164.74 3.08C166.43 3.08 167.22 3.82 167.33 4.75L168.41 4.75C168.32 3.36 167.20 2.10 164.74 2.10C162.41 2.10 161.25 3.15 161.25 4.66C161.25 7.84 167.59 6.69 167.59 8.96C167.59 10.05 166.61 10.60 165.05 10.60C163.44 10.60 162.13 10.05 162.06 8.71L160.97 8.71C161.11 10.37 162.23 11.59 164.98 11.59C167.26 11.59 168.64 10.64 168.64 8.92C168.64 5.68 162.27 6.80 162.27 4.65ZM188.30 2.21L187.25 2.21L187.25 11.48L188.30 11.48ZM204.51 2.21L204.51 10.01L198.79 2.21L197.57 2.21L197.57 11.48L198.62 11.48L198.62 3.65L204.34 11.48L205.56 11.48L205.56 2.21ZM231.39 2.21L223.87 2.21L223.87 3.22L227.11 3.22L227.11 11.48L228.16 11.48L228.16 3.22L231.39 3.22ZM246.16 2.21L246.16 6.33L240.77 6.33L240.77 2.21L239.72 2.21L239.72 11.48L240.77 11.48L240.77 7.35L246.16 7.35L246.16 11.48L247.21 11.48L247.21 2.21ZM263.30 3.22L263.30 2.21L256.48 2.21L256.48 11.48L263.30 11.48L263.30 10.47L257.53 10.47L257.53 7.35L262.68 7.35L262.68 6.33L257.53 6.33L257.53 3.22ZM288.55 2.21L281.04 2.21L281.04 3.22L284.27 3.22L284.27 11.48L285.32 11.48L285.32 3.22L288.55 3.22ZM303.70 3.22L303.70 2.21L296.88 2.21L296.88 11.48L303.70 11.48L303.70 10.47L297.93 10.47L297.93 7.35L303.09 7.35L303.09 6.33L297.93 6.33L297.93 3.22ZM313.45 7.92L316.67 7.92L318.91 11.48L320.15 11.48L317.72 7.74C318.75 7.50 319.96 6.90 319.96 5.11C319.96 3.35 318.74 2.21 316.83 2.21L312.40 2.21L312.40 11.48L313.45 11.48ZM313.45 3.21L316.71 3.21C318.02 3.21 318.91 3.93 318.91 5.11C318.91 6.55 317.65 6.93 316.65 6.93L313.45 6.93ZM336.56 2.21L333.30 6.61L329.98 2.21L328.76 2.21L328.76 11.48L329.81 11.48L329.81 3.81L333.30 8.22L336.73 3.81L336.73 11.48L337.78 11.48L337.78 2.21ZM348.10 2.21L347.05 2.21L347.05 11.48L348.10 11.48ZM364.31 2.21L364.31 10.01L358.58 2.21L357.36 2.21L357.36 11.48L358.41 11.48L358.41 3.65L364.14 11.48L365.36 11.48L365.36 2.21ZM378.78 2.21L377.47 2.21L373.53 11.48L374.70 11.48L375.83 8.79L380.42 8.79L381.56 11.48L382.72 11.48ZM376.24 7.83L378.13 3.30L380.02 7.83ZM390.89 2.21L390.89 11.48L397.00 11.48L397.00 10.47L391.94 10.47L391.94 2.21Z"></path></g></svg>