<svg data-v-fde0c5aa="" xmlns="http://www.w3.org/2000/svg" viewBox="0 0 300 300" class="icon"><!----><defs data-v-fde0c5aa=""><!----></defs><rect data-v-fde0c5aa="" fill="#FEF2E5" x="0" y="0" width="300px" height="300px" class="logo-background-square"></rect><!----><defs data-v-fde0c5aa=""><linearGradient data-v-fde0c5aa="" gradientTransform="rotate(25)" id="58bb0dd9-b710-4a89-93aa-1900567a0297" x1="0%" y1="0%" x2="100%" y2="0%"><stop data-v-fde0c5aa="" offset="0%" stop-color="#EB4C00" stop-opacity="1"></stop><stop data-v-fde0c5aa="" offset="100%" stop-color="#F2A900" stop-opacity="1"></stop></linearGradient></defs><g data-v-fde0c5aa="" id="881b8f74-d9b5-49e5-978e-cf14fda0c74e" fill="url(#58bb0dd9-b710-4a89-93aa-1900567a0297)" stroke="none" transform="matrix(2.444417506385309,0,0,2.444417506385309,27.777912468073456,27.77912001837817)"><path d="M53.214 58.036h6.429v-6.429H40.357v6.429h6.429zM21.071 38.75H27.5v6.429h-6.429zM27.5 45.179h6.429v6.429H27.5z"></path><path d="M14.643 90.179h70.715c6.221 0 9.643-3.422 9.643-9.643V19.464c0-6.221-3.425-9.643-9.643-9.643H14.643C8.425 9.821 5 13.243 5 19.464v61.072c0 6.221 3.425 9.643 9.643 9.643zm38.571-70.715h32.144v6.429H53.214v-6.429zm-12.857 0h6.429v6.429h-6.429v-6.429zm-12.857 0h6.429v6.429H27.5v-6.429zm-12.857 0h6.429v6.429h-6.429v-6.429zm0 16.072c0-1.599 1.617-3.215 3.215-3.215h64.285c1.598 0 3.215 1.616 3.215 3.215v41.785c0 1.598-1.617 3.215-3.215 3.215H17.857c-1.598 0-3.215-1.617-3.215-3.215V35.536z"></path><path d="M21.071 51.607H27.5v6.429h-6.429z"></path></g><!----></svg>