<svg data-v-423bf9ae="" xmlns="http://www.w3.org/2000/svg" viewBox="0 0 67.2000223304905 60" class="icon"><!----><!----><!----><!----><g data-v-423bf9ae="" id="561167c2-851d-44aa-8b6f-ff8bdc7b8b20" transform="matrix(0.7466586864278849,0,0,0.7466586864278849,-3.7332927718231517,-7.332935745532673)" stroke="none" fill="white"><path d="M53.214 58.036h6.429v-6.429H40.357v6.429h6.429zM21.071 38.75H27.5v6.429h-6.429zM27.5 45.179h6.429v6.429H27.5z"></path><path d="M14.643 90.179h70.715c6.221 0 9.643-3.422 9.643-9.643V19.464c0-6.221-3.425-9.643-9.643-9.643H14.643C8.425 9.821 5 13.243 5 19.464v61.072c0 6.221 3.425 9.643 9.643 9.643zm38.571-70.715h32.144v6.429H53.214v-6.429zm-12.857 0h6.429v6.429h-6.429v-6.429zm-12.857 0h6.429v6.429H27.5v-6.429zm-12.857 0h6.429v6.429h-6.429v-6.429zm0 16.072c0-1.599 1.617-3.215 3.215-3.215h64.285c1.598 0 3.215 1.616 3.215 3.215v41.785c0 1.598-1.617 3.215-3.215 3.215H17.857c-1.598 0-3.215-1.617-3.215-3.215V35.536z"></path><path d="M21.071 51.607H27.5v6.429h-6.429z"></path></g><!----></svg>